<svg width="160" height="161" viewBox="0 0 160 161" fill="none" xmlns="http://www.w3.org/2000/svg">
<circle cx="80" cy="80.7598" r="80" fill="#EE9254"/>
<path d="M79.9996 64.0564V98.3421M79.9996 98.3421L89.6699 88.6718M79.9996 98.3421L70.3293 88.6718" stroke="white" stroke-width="1.75824"/>
<path d="M12.3757 78.0647V76.9111H21V77.7168H13.4744L20.292 80.5549V81.3728L13.4622 84.2109H21V85.0166H12.3757V83.8569L19.3582 80.9578L12.3757 78.0647Z" fill="white"/>
<path d="M23.3914 64.4575C22.8738 66.2203 21.2841 66.8031 19.6034 66.3096C17.9519 65.8247 16.8315 64.4843 17.3319 62.7801C17.8925 60.8709 19.6225 60.6983 20.7821 61.0387C20.9812 61.0972 21.2103 61.1836 21.2913 61.2328L20.0257 65.543C21.3488 65.8679 22.3447 65.4224 22.6904 64.2453C22.8967 63.5426 22.8462 62.9998 22.4504 62.3111L23.083 61.9116C23.5756 62.7686 23.6682 63.5147 23.3914 64.4575ZM19.4517 65.3745L20.5024 61.7963C20.3811 61.7543 20.2523 61.7165 20.13 61.6997C19.3188 61.5378 18.3324 61.8207 17.992 62.9802C17.679 64.0461 18.3097 64.931 19.4517 65.3745Z" fill="white"/>
<path d="M30.2759 49.1694C29.2826 50.7149 27.5932 50.8262 26.1195 49.8792C24.6716 48.9486 23.9742 47.3469 24.9344 45.8527C26.0102 44.1788 27.7188 44.5006 28.7355 45.1539C28.91 45.2661 29.1055 45.4135 29.1693 45.4836L26.7407 49.2626C27.9187 49.9471 28.9998 49.8003 29.663 48.7683C30.059 48.1521 30.1635 47.617 29.9778 46.8447L30.6973 46.6396C30.9284 47.6008 30.8072 48.3427 30.2759 49.1694ZM26.2375 48.9393L28.2537 45.802C28.1491 45.7276 28.0362 45.655 27.9236 45.6044C27.1908 45.2205 26.1647 45.2141 25.5114 46.2307C24.9108 47.1652 25.2667 48.192 26.2375 48.9393Z" fill="white"/>
<path d="M41.7609 35.9454C40.9445 36.6529 40.0906 36.5529 39.3271 35.6719L36.901 32.8719L36.1353 33.5354L35.6876 33.0188L36.4626 32.3473L35.3074 31.0142L35.5194 30.0472L37.0622 31.8277L38.3538 30.7086L38.8014 31.2252L37.5099 32.3443L39.8521 35.0474C40.4157 35.6978 40.9058 35.7415 41.3947 35.3178C41.5977 35.1419 41.7533 34.9021 41.8385 34.7395L42.3314 35.2896C42.2283 35.4596 42.0192 35.7216 41.7609 35.9454Z" fill="white"/>
<path d="M71.3666 22.4856C68.7084 22.8678 67.1651 21.0117 66.8307 18.6857C66.4962 16.3598 67.455 14.1501 70.1132 13.7679C72.7895 13.3831 74.3259 15.2341 74.6603 17.56C74.9947 19.8859 74.0429 22.1008 71.3666 22.4856ZM71.2597 21.7425C73.4044 21.4342 74.0718 19.6425 73.7903 17.6851C73.5098 15.7337 72.3638 14.1966 70.2191 14.5049C68.0926 14.8107 67.4201 16.6093 67.7006 18.5606C67.9821 20.5181 69.1332 22.0483 71.2597 21.7425Z" fill="white"/>
<path d="M87.6922 22.3506C86.2785 22.1473 85.7702 21.0507 85.9337 19.7422L86.4827 15.9241L87.2741 16.0379L86.7512 19.6748C86.5931 20.7743 87.0197 21.4954 88.0105 21.6379C89.0255 21.7838 89.7821 21.239 89.9515 20.0609L90.4639 16.4965L91.2554 16.6103L90.3876 22.6456L89.5962 22.5318L89.7439 21.5048C89.2633 22.188 88.4897 22.4652 87.6922 22.3506Z" fill="white"/>
<path d="M103.229 26.5058L105.762 20.9594L106.478 21.2865L105.948 22.4469C106.616 21.7186 107.568 21.6769 108.229 21.9786C108.54 22.1206 108.815 22.3539 108.973 22.6406L108.361 23.0992C108.215 22.905 108.024 22.7506 107.802 22.6492C107.063 22.3119 105.92 22.4943 105.233 23.9989L103.94 26.8304L103.229 26.5058Z" fill="white"/>
<path d="M128.028 46.3614L133.94 39.609L134.412 40.3432L129.295 46.1203L136.371 44.2499L136.741 44.8249L132.096 50.4796L139.477 48.2249L139.952 48.9642L131.351 51.532L130.892 50.8183L135.447 45.2502L128.49 47.0803L128.028 46.3614Z" fill="white"/>
<path d="M135.864 61.5984L144.139 59.1686L144.37 59.9534L140.95 60.9576C141.772 61.1168 142.347 61.686 142.574 62.4591C142.974 63.8236 142.195 64.7649 140.937 65.1598L137.23 66.2483L136.999 65.4635L140.525 64.4283C141.567 64.1223 142.114 63.5163 141.813 62.4914C141.507 61.449 140.551 61.0745 139.433 61.403L136.095 62.3831L135.864 61.5984Z" fill="white"/>
<path d="M136.388 78.7788L139.073 79.8164L145.097 77.2224V78.1074L140.019 80.2437L145.097 82.1235V83.0024L136.388 79.6577V78.7788Z" fill="white"/>
<path d="M12.3757 83.4539V84.6074H21V83.8018H13.4744L20.292 80.9636V80.1458L13.4622 77.3076H21V76.502H12.3757V77.6616L19.3582 80.5608L12.3757 83.4539Z" fill="white"/>
<path d="M23.3914 97.061C22.8738 95.2983 21.2841 94.7155 19.6034 95.209C17.9519 95.6939 16.8315 97.0343 17.3319 98.7385C17.8925 100.648 19.6225 100.82 20.7821 100.48C20.9812 100.421 21.2103 100.335 21.2913 100.286L20.0257 95.9755C21.3488 95.6506 22.3447 96.0961 22.6904 97.2732C22.8967 97.976 22.8462 98.5188 22.4504 99.2075L23.083 99.607C23.5756 98.7499 23.6682 98.0039 23.3914 97.061ZM19.4517 96.1441L20.5024 99.7223C20.3811 99.7642 20.2523 99.802 20.13 99.8189C19.3188 99.9807 18.3324 99.6978 17.992 98.5383C17.679 97.4725 18.3097 96.5875 19.4517 96.1441Z" fill="white"/>
<path d="M30.2759 112.349C29.2826 110.804 27.5932 110.692 26.1195 111.639C24.6716 112.57 23.9742 114.172 24.9344 115.666C26.0102 117.34 27.7188 117.018 28.7355 116.365C28.91 116.252 29.1055 116.105 29.1693 116.035L26.7407 112.256C27.9187 111.571 28.9998 111.718 29.663 112.75C30.059 113.366 30.1635 113.902 29.9778 114.674L30.6973 114.879C30.9284 113.918 30.8072 113.176 30.2759 112.349ZM26.2375 112.579L28.2537 115.717C28.1491 115.791 28.0362 115.864 27.9236 115.914C27.1908 116.298 26.1647 116.304 25.5114 115.288C24.9108 114.353 25.2667 113.327 26.2375 112.579Z" fill="white"/>
<path d="M41.7609 125.573C40.9445 124.866 40.0906 124.966 39.3271 125.847L36.901 128.647L36.1353 127.983L35.6876 128.5L36.4626 129.171L35.3074 130.504L35.5194 131.471L37.0622 129.691L38.3538 130.81L38.8014 130.293L37.5099 129.174L39.8521 126.471C40.4157 125.821 40.9058 125.777 41.3947 126.201C41.5977 126.377 41.7533 126.616 41.8385 126.779L42.3314 126.229C42.2283 126.059 42.0192 125.797 41.7609 125.573Z" fill="white"/>
<path d="M71.3666 139.033C68.7084 138.651 67.1651 140.507 66.8307 142.833C66.4962 145.159 67.455 147.368 70.1132 147.751C72.7895 148.135 74.3259 146.284 74.6603 143.959C74.9947 141.633 74.0429 139.418 71.3666 139.033ZM71.2597 139.776C73.4044 140.084 74.0718 141.876 73.7903 143.833C73.5098 145.785 72.3638 147.322 70.2191 147.014C68.0926 146.708 67.4201 144.909 67.7006 142.958C67.9821 141.001 69.1332 139.47 71.2597 139.776Z" fill="white"/>
<path d="M87.6922 139.168C86.2785 139.371 85.7702 140.468 85.9337 141.776L86.4827 145.594L87.2741 145.481L86.7512 141.844C86.5931 140.744 87.0197 140.023 88.0105 139.881C89.0255 139.735 89.7821 140.28 89.9515 141.458L90.4639 145.022L91.2554 144.908L90.3876 138.873L89.5962 138.987L89.7439 140.014C89.2633 139.331 88.4897 139.053 87.6922 139.168Z" fill="white"/>
<path d="M103.229 135.013L105.762 140.559L106.478 140.232L105.948 139.072C106.616 139.8 107.568 139.842 108.229 139.54C108.54 139.398 108.815 139.165 108.973 138.878L108.361 138.419C108.215 138.614 108.024 138.768 107.802 138.869C107.063 139.207 105.92 139.024 105.233 137.52L103.94 134.688L103.229 135.013Z" fill="white"/>
<path d="M128.028 115.157L133.94 121.91L134.412 121.175L129.295 115.398L136.371 117.269L136.741 116.694L132.096 111.039L139.477 113.294L139.952 112.554L131.351 109.987L130.892 110.7L135.447 116.268L128.49 114.438L128.028 115.157Z" fill="white"/>
<path d="M135.864 99.9202L144.139 102.35L144.37 101.565L140.95 100.561C141.772 100.402 142.347 99.8325 142.574 99.0595C142.974 97.695 142.195 96.7536 140.937 96.3588L137.23 95.2703L136.999 96.055L140.525 97.0902C141.567 97.3963 142.114 98.0023 141.813 99.0271C141.507 100.07 140.551 100.444 139.433 100.116L136.095 99.1354L135.864 99.9202Z" fill="white"/>
<path d="M136.388 82.7397L139.073 81.7021L145.097 84.2961V83.4111L140.019 81.2749L145.097 79.395V78.5161L136.388 81.8608V82.7397Z" fill="white"/>
</svg>
