<svg width="200" height="35" viewBox="0 0 200 35" fill="none" xmlns="http://www.w3.org/2000/svg">
<path fill-rule="evenodd" clip-rule="evenodd" d="M8.42647 0.554101C8.30031 0.629663 8.19696 0.800678 8.19696 0.934106C8.19696 1.15937 8.66018 1.61856 9.02321 1.75328C9.1339 1.79435 9.11751 1.86384 8.96786 1.98784C8.66163 2.24165 8.57992 2.71673 8.80471 2.93799C8.90963 3.04132 9.22899 3.1949 9.51438 3.27911C10.0815 3.44638 10.1704 3.58924 9.78284 3.7104C9.45326 3.81334 9.32394 4.16907 9.53916 4.38103C9.63346 4.4739 10.2259 4.68108 10.8555 4.84138C11.4852 5.00167 12.0003 5.16313 12.0003 5.2002C12.0003 5.23714 11.8676 5.32484 11.7053 5.39498C11.5219 5.47416 11.3943 5.65809 11.3683 5.88052C11.3328 6.18586 11.3967 6.2675 11.8017 6.43412C12.0629 6.54159 12.4653 6.66158 12.6958 6.70072C13.4629 6.83092 13.5144 6.8698 13.2034 7.08434C13.0467 7.19245 12.9184 7.3627 12.9184 7.46267C12.9184 7.69478 13.8139 8.29889 14.162 8.30147C14.6409 8.30509 14.8028 8.48528 14.6059 8.79566C14.4908 8.9774 14.4769 9.11109 14.5645 9.19737C14.6819 9.31297 15.7782 9.56097 17.148 9.78197C17.6454 9.86206 17.7142 9.93219 17.5395 10.1798C17.4517 10.3042 12.6793 11.5287 12.2822 11.5287C12.1888 11.5287 11.3641 11.8167 10.4497 12.1687C9.53536 12.5208 7.9904 13.0651 7.0166 13.3783C6.0428 13.6917 4.83293 14.1274 4.32799 14.3466C3.82306 14.5659 2.88572 14.9026 2.24518 15.0951C0.889338 15.5022 0 16.0875 0 16.5727C0 16.8498 0.0657074 16.8939 0.528934 16.9274C0.923831 16.9561 1.09 17.037 1.18469 17.247C1.37578 17.6705 2.15246 17.8003 3.40993 17.619C3.987 17.5358 4.59908 17.4307 4.76997 17.3853C5.08054 17.3029 5.08067 17.3032 4.84591 17.6559C4.64695 17.9551 4.63948 18.0265 4.79738 18.1231C5.093 18.304 6.65659 18.052 8.96367 17.4517C9.78205 17.2387 10.485 17.0974 10.5258 17.1375C10.5665 17.1776 10.4946 17.3249 10.3661 17.4648C10.1118 17.7414 10.1701 18.0769 10.4938 18.1992C10.6943 18.275 11.1429 18.0996 13.5086 17.0204C15.1164 16.2869 15.5005 16.1437 15.6919 16.2066C15.782 16.2361 15.5751 16.4503 15.2323 16.6827C14.2135 17.3729 14.6644 17.6854 16.0081 17.2203C16.4272 17.0752 16.9941 16.8105 17.2678 16.6322C17.8467 16.2549 17.9022 16.243 17.9022 16.4971C17.9022 16.7757 18.4022 16.9907 18.8468 16.9031C19.1087 16.8516 19.3018 16.8928 19.4411 17.03C19.6397 17.2255 20.1667 17.2102 20.7442 16.9919C20.9172 16.9265 20.9209 16.9537 20.771 17.19C20.4611 17.6789 20.7766 17.7785 21.6829 17.4778C22.1235 17.3316 22.5146 17.212 22.552 17.212C22.5892 17.212 22.5028 17.4008 22.3599 17.6318C22.1378 17.9905 22.0001 18.6328 22.1453 18.6328C22.1707 18.6328 22.5984 18.4875 23.0956 18.3099C24.224 17.9068 24.2795 17.9081 23.9439 18.3281C23.7356 18.589 23.7063 18.7107 23.8193 18.8448C24.0215 19.0848 24.3315 19.0653 25.0352 18.7682C25.3855 18.6203 25.6643 18.5669 25.7096 18.639C25.854 18.8692 26.6962 18.7629 27.3625 18.4304C27.7279 18.248 28.0598 18.1313 28.1002 18.1709C28.1405 18.2106 28.0609 18.7522 27.9232 19.3744C27.7107 20.3351 27.6778 20.9539 27.7049 23.4765C27.7413 26.8608 27.6345 27.5267 26.6585 29.9994C26.1829 31.2043 26.1163 31.5087 26.0623 32.7267C25.9891 34.3727 26.0897 34.5126 26.8323 33.7984L27.3451 33.3053V33.8405C27.3451 34.1349 27.4077 34.414 27.4845 34.4607C27.6736 34.5758 28.1076 34.169 28.4023 33.6003C28.5356 33.3431 28.7608 33.1026 28.9026 33.0662C29.2397 32.9794 29.7058 32.0689 29.7058 31.4976C29.7058 30.9908 29.8919 30.7924 30.0712 31.1079C30.2453 31.4144 30.6599 31.28 30.8696 30.8489C31.0718 30.4333 31.2589 28.4277 31.28 26.4473C31.2894 25.5707 31.3654 24.9732 31.5162 24.5879C31.7293 24.0437 31.7878 24.0004 32.919 23.5467C33.5682 23.2863 34.3944 22.9085 34.7551 22.7071C37.1017 21.3964 37.5772 21.1155 38.1654 20.6931C40.373 19.1075 41.5436 17.0571 41.9742 14.0215C42.1823 12.5539 42.4854 11.3033 42.7692 10.7405C42.9716 10.3392 43.7126 9.67812 44.2892 9.3844C44.5176 9.26802 45.5053 8.91488 46.4841 8.59959C49.2749 7.70059 50.9789 7.62542 57.3596 8.11922C58.7557 8.22733 59.931 8.283 59.9717 8.24309C60.3927 7.82847 56.056 7.24309 50.9523 7.02557C47.8848 6.89486 47.6992 6.84422 46.1653 5.71867C44.6561 4.61133 43.5648 4.16532 41.783 3.92779C40.8601 3.80482 40.2463 3.89601 39.179 4.31464C38.2916 4.66274 37.4803 5.54171 36.7748 6.91966C35.7874 8.84836 35.1057 9.5912 34.3231 9.5912C33.8466 9.5912 33.7207 9.48244 32.2862 7.83157C31.3524 6.75678 30.9924 6.44303 30.264 6.06923C29.3365 5.59325 27.9119 4.99883 26.6893 4.57775C26.2926 4.44109 25.4663 4.14246 24.8532 3.91422C23.7095 3.48823 20.6211 2.63587 18.7546 2.23093C18.1776 2.10577 16.6431 1.76839 15.3447 1.48138C11.8347 0.705483 8.84314 0.304552 8.42647 0.554101Z" fill="url(#paint0_linear_134_539)"/>
<path d="M73.6255 24.9562C73.6095 25.0202 73.5215 25.0522 73.3615 25.0522C73.2335 25.0522 73.1455 25.0202 73.0975 24.9562L67.1215 11.9722C66.8335 11.3322 66.5455 10.8922 66.2575 10.6522C65.9695 10.3962 65.5775 10.2682 65.0815 10.2682C65.0335 10.2682 65.0095 10.2202 65.0095 10.1242C65.0095 10.0282 65.0335 9.98022 65.0815 9.98022L65.9935 10.0042C66.4415 10.0362 66.8015 10.0522 67.0735 10.0522C67.6495 10.0522 68.2735 10.0362 68.9455 10.0042L69.9295 9.98022C69.9775 9.98022 70.0015 10.0282 70.0015 10.1242C70.0015 10.2202 69.9775 10.2682 69.9295 10.2682C69.4495 10.2682 69.0895 10.3242 68.8495 10.4362C68.6255 10.5482 68.5135 10.7402 68.5135 11.0122C68.5135 11.2522 68.5935 11.5402 68.7535 11.8762L74.0815 23.3242L73.2175 24.4762L76.3615 16.6282L76.7215 17.1562L73.6255 24.9562ZM87.5455 9.98022C87.5775 9.98022 87.5935 10.0282 87.5935 10.1242C87.5935 10.2202 87.5775 10.2682 87.5455 10.2682C87.0015 10.2682 86.5295 10.4122 86.1295 10.7002C85.7295 10.9882 85.3855 11.4762 85.0975 12.1642L79.9855 24.9562C79.9695 25.0202 79.8815 25.0522 79.7215 25.0522C79.5935 25.0522 79.5055 25.0202 79.4575 24.9562L73.5055 11.9722C73.2175 11.3482 72.9295 10.9082 72.6415 10.6522C72.3535 10.3962 71.9775 10.2682 71.5135 10.2682C71.4655 10.2682 71.4415 10.2202 71.4415 10.1242C71.4415 10.0282 71.4655 9.98022 71.5135 9.98022L72.4255 10.0042C72.8415 10.0362 73.1855 10.0522 73.4575 10.0522C73.9055 10.0522 74.3695 10.0362 74.8495 10.0042L75.4975 9.98022C75.5455 9.98022 75.5695 10.0282 75.5695 10.1242C75.5695 10.2202 75.5455 10.2682 75.4975 10.2682C75.2095 10.2682 75.0015 10.3002 74.8735 10.3642C74.7455 10.4122 74.6815 10.5082 74.6815 10.6522C74.6815 10.8442 74.8255 11.2522 75.1135 11.8762L80.4655 23.3242L79.6015 24.4762L84.5695 12.0682C84.6975 11.7322 84.7615 11.4682 84.7615 11.2762C84.7615 10.9242 84.6095 10.6682 84.3055 10.5082C84.0175 10.3482 83.5615 10.2682 82.9375 10.2682C82.8895 10.2682 82.8655 10.2202 82.8655 10.1242C82.8655 10.0282 82.8895 9.98022 82.9375 9.98022L83.9455 10.0042C84.4895 10.0362 84.9775 10.0522 85.4095 10.0522C85.7295 10.0522 86.0975 10.0362 86.5135 10.0042L87.5455 9.98022ZM78.3055 12.0202C78.4975 11.5882 78.5935 11.2362 78.5935 10.9642C78.5935 10.5002 78.2495 10.2682 77.5615 10.2682C77.5135 10.2682 77.4895 10.2202 77.4895 10.1242C77.4895 10.0282 77.5135 9.98022 77.5615 9.98022L78.1135 10.0042C78.4335 10.0362 78.7695 10.0522 79.1215 10.0522C79.4415 10.0522 79.8095 10.0362 80.2255 10.0042L81.2095 9.98022C81.2415 9.98022 81.2575 10.0282 81.2575 10.1242C81.2575 10.2202 81.2415 10.2682 81.2095 10.2682C80.6655 10.2682 80.2015 10.4122 79.8175 10.7002C79.4495 10.9722 79.1215 11.4602 78.8335 12.1642L76.8415 17.1562L76.4815 16.6282L78.3055 12.0202ZM89.3758 19.0282H93.7438L93.9118 19.4602H88.9918L89.3758 19.0282ZM98.1838 24.6922C98.2478 24.6922 98.2798 24.7402 98.2798 24.8362C98.2798 24.9322 98.2478 24.9802 98.1838 24.9802C97.8958 24.9802 97.4318 24.9642 96.7918 24.9322C96.1518 24.9002 95.6878 24.8842 95.3998 24.8842C95.1438 24.8842 94.8078 24.9002 94.3918 24.9322C93.9758 24.9642 93.6558 24.9802 93.4318 24.9802C93.3678 24.9802 93.3358 24.9322 93.3358 24.8362C93.3358 24.7402 93.3678 24.6922 93.4318 24.6922C93.8638 24.6922 94.1758 24.6442 94.3678 24.5482C94.5758 24.4362 94.6798 24.2522 94.6798 23.9962C94.6798 23.7722 94.5758 23.4282 94.3678 22.9642L90.7198 15.0922L91.3438 14.5642L88.3438 22.0282C88.0878 22.6362 87.9598 23.1402 87.9598 23.5402C87.9598 23.9562 88.1038 24.2522 88.3918 24.4282C88.6798 24.6042 89.1198 24.6922 89.7118 24.6922C89.7918 24.6922 89.8318 24.7402 89.8318 24.8362C89.8318 24.9322 89.7918 24.9802 89.7118 24.9802C89.4718 24.9802 89.1438 24.9642 88.7278 24.9322C88.2798 24.9002 87.8638 24.8842 87.4798 24.8842C87.0798 24.8842 86.6078 24.9002 86.0638 24.9322C85.5838 24.9642 85.1998 24.9802 84.9118 24.9802C84.8318 24.9802 84.7918 24.9322 84.7918 24.8362C84.7918 24.7402 84.8318 24.6922 84.9118 24.6922C85.4078 24.6922 85.7998 24.6282 86.0878 24.5002C86.3758 24.3562 86.6398 24.0842 86.8798 23.6842C87.1358 23.2842 87.4398 22.6602 87.7918 21.8122L91.2478 13.3882C91.2798 13.3242 91.3278 13.2922 91.3918 13.2922C91.4558 13.2922 91.4958 13.3242 91.5118 13.3882L95.3758 21.6922C95.7918 22.5882 96.1198 23.2362 96.3598 23.6362C96.6158 24.0362 96.8718 24.3162 97.1278 24.4762C97.3998 24.6202 97.7518 24.6922 98.1838 24.6922ZM104.15 24.6922C104.182 24.6922 104.198 24.7402 104.198 24.8362C104.198 24.9322 104.182 24.9802 104.15 24.9802C103.702 24.9802 103.358 24.9722 103.118 24.9562L101.606 24.9322L100.19 24.9562C99.9181 24.9722 99.5501 24.9802 99.0861 24.9802C99.0541 24.9802 99.0381 24.9322 99.0381 24.8362C99.0381 24.7402 99.0541 24.6922 99.0861 24.6922C99.6141 24.6922 99.9981 24.6522 100.238 24.5722C100.494 24.4922 100.67 24.3402 100.766 24.1162C100.862 23.8762 100.91 23.5162 100.91 23.0362V15.6922C100.91 15.2122 100.862 14.8602 100.766 14.6362C100.686 14.4122 100.518 14.2602 100.262 14.1802C100.022 14.0842 99.6381 14.0362 99.1101 14.0362C99.0781 14.0362 99.0621 13.9882 99.0621 13.8922C99.0621 13.7962 99.0781 13.7482 99.1101 13.7482L100.214 13.7722C100.79 13.8042 101.254 13.8202 101.606 13.8202C101.894 13.8202 102.158 13.8122 102.398 13.7962C102.654 13.7802 102.87 13.7642 103.046 13.7482C103.558 13.7002 104.03 13.6762 104.462 13.6762C105.502 13.6762 106.294 13.8762 106.838 14.2762C107.382 14.6762 107.654 15.2522 107.654 16.0042C107.654 16.6602 107.462 17.2682 107.078 17.8282C106.694 18.3882 106.166 18.8362 105.494 19.1722C104.822 19.4922 104.086 19.6522 103.286 19.6522C102.774 19.6522 102.334 19.6202 101.966 19.5562L101.942 19.0762C102.342 19.1882 102.846 19.2442 103.454 19.2442C104.446 19.2442 105.134 19.0282 105.518 18.5962C105.918 18.1482 106.118 17.5002 106.118 16.6522C106.118 14.8922 105.358 14.0122 103.838 14.0122C103.23 14.0122 102.83 14.1402 102.638 14.3962C102.462 14.6522 102.374 15.1002 102.374 15.7402V23.0362C102.374 23.5322 102.414 23.8922 102.494 24.1162C102.574 24.3402 102.734 24.4922 102.974 24.5722C103.214 24.6522 103.606 24.6922 104.15 24.6922ZM111.278 24.6922C111.31 24.6922 111.326 24.7402 111.326 24.8362C111.326 24.9322 111.31 24.9802 111.278 24.9802H108.47C108.182 24.9802 107.662 24.4842 106.91 23.4922C106.158 22.5002 105.262 21.1402 104.222 19.4122L105.494 18.9082C106.422 20.4282 107.198 21.5962 107.822 22.4122C108.446 23.2282 109.022 23.8122 109.55 24.1642C110.094 24.5162 110.67 24.6922 111.278 24.6922ZM116.947 24.6922C116.979 24.6922 116.995 24.7402 116.995 24.8362C116.995 24.9322 116.979 24.9802 116.947 24.9802C116.499 24.9802 116.155 24.9722 115.915 24.9562L114.403 24.9322L112.987 24.9562C112.715 24.9722 112.347 24.9802 111.883 24.9802C111.851 24.9802 111.835 24.9322 111.835 24.8362C111.835 24.7402 111.851 24.6922 111.883 24.6922C112.411 24.6922 112.795 24.6522 113.035 24.5722C113.291 24.4922 113.467 24.3402 113.563 24.1162C113.659 23.8762 113.707 23.5162 113.707 23.0362V15.6922C113.707 15.2122 113.659 14.8602 113.563 14.6362C113.483 14.4122 113.315 14.2602 113.059 14.1802C112.819 14.0842 112.435 14.0362 111.907 14.0362C111.875 14.0362 111.859 13.9882 111.859 13.8922C111.859 13.7962 111.875 13.7482 111.907 13.7482L113.011 13.7722C113.587 13.8042 114.051 13.8202 114.403 13.8202C114.691 13.8202 114.955 13.8122 115.195 13.7962C115.451 13.7802 115.667 13.7642 115.843 13.7482C116.355 13.7002 116.827 13.6762 117.259 13.6762C118.299 13.6762 119.091 13.8762 119.635 14.2762C120.179 14.6762 120.451 15.2522 120.451 16.0042C120.451 16.6602 120.259 17.2682 119.875 17.8282C119.491 18.3882 118.963 18.8362 118.291 19.1722C117.619 19.4922 116.883 19.6522 116.083 19.6522C115.571 19.6522 115.131 19.6202 114.763 19.5562L114.739 19.0762C115.139 19.1882 115.643 19.2442 116.251 19.2442C117.243 19.2442 117.931 19.0282 118.315 18.5962C118.715 18.1482 118.915 17.5002 118.915 16.6522C118.915 14.8922 118.155 14.0122 116.635 14.0122C116.027 14.0122 115.627 14.1402 115.435 14.3962C115.259 14.6522 115.171 15.1002 115.171 15.7402V23.0362C115.171 23.5322 115.211 23.8922 115.291 24.1162C115.371 24.3402 115.531 24.4922 115.771 24.5722C116.011 24.6522 116.403 24.6922 116.947 24.6922ZM124.075 24.6922C124.107 24.6922 124.123 24.7402 124.123 24.8362C124.123 24.9322 124.107 24.9802 124.075 24.9802H121.267C120.979 24.9802 120.459 24.4842 119.707 23.4922C118.955 22.5002 118.059 21.1402 117.019 19.4122L118.291 18.9082C119.219 20.4282 119.995 21.5962 120.619 22.4122C121.243 23.2282 121.819 23.8122 122.347 24.1642C122.891 24.5162 123.467 24.6922 124.075 24.6922ZM128.112 23.0362C128.112 23.5322 128.152 23.8922 128.232 24.1162C128.328 24.3402 128.496 24.4922 128.736 24.5722C128.976 24.6522 129.368 24.6922 129.912 24.6922C129.944 24.6922 129.96 24.7402 129.96 24.8362C129.96 24.9322 129.944 24.9802 129.912 24.9802C129.464 24.9802 129.112 24.9722 128.856 24.9562L127.344 24.9322L125.928 24.9562C125.656 24.9722 125.288 24.9802 124.824 24.9802C124.792 24.9802 124.776 24.9322 124.776 24.8362C124.776 24.7402 124.792 24.6922 124.824 24.6922C125.368 24.6922 125.76 24.6522 126 24.5722C126.24 24.4922 126.4 24.3402 126.48 24.1162C126.576 23.8922 126.624 23.5322 126.624 23.0362V15.6922C126.624 15.2122 126.576 14.8602 126.48 14.6362C126.4 14.4122 126.232 14.2602 125.976 14.1802C125.736 14.0842 125.352 14.0362 124.824 14.0362C124.792 14.0362 124.776 13.9882 124.776 13.8922C124.776 13.7962 124.792 13.7482 124.824 13.7482L125.928 13.7722C126.504 13.8042 126.976 13.8202 127.344 13.8202C127.76 13.8202 128.272 13.8042 128.88 13.7722L129.912 13.7482C129.944 13.7482 129.96 13.7962 129.96 13.8922C129.96 13.9882 129.944 14.0362 129.912 14.0362C129.4 14.0362 129.016 14.0842 128.76 14.1802C128.504 14.2762 128.328 14.4442 128.232 14.6842C128.152 14.9082 128.112 15.2602 128.112 15.7402V23.0362ZM137.471 25.2682C136.351 25.2682 135.351 25.0042 134.471 24.4762C133.607 23.9482 132.935 23.2362 132.455 22.3402C131.975 21.4442 131.735 20.4762 131.735 19.4362C131.735 18.1882 132.055 17.1162 132.695 16.2202C133.351 15.3082 134.175 14.6202 135.167 14.1562C136.175 13.6922 137.199 13.4602 138.239 13.4602C139.359 13.4602 140.343 13.7402 141.191 14.3002C142.055 14.8442 142.711 15.5562 143.159 16.4362C143.623 17.3162 143.855 18.2362 143.855 19.1962C143.855 20.2682 143.567 21.2762 142.991 22.2202C142.415 23.1482 141.639 23.8922 140.663 24.4522C139.687 24.9962 138.623 25.2682 137.471 25.2682ZM138.095 24.7642C139.343 24.7642 140.335 24.3242 141.071 23.4442C141.823 22.5642 142.199 21.3482 142.199 19.7962C142.199 18.7242 142.007 17.7482 141.623 16.8682C141.255 15.9882 140.711 15.2842 139.991 14.7562C139.271 14.2282 138.415 13.9642 137.423 13.9642C136.143 13.9642 135.151 14.3962 134.447 15.2602C133.743 16.1082 133.391 17.3002 133.391 18.8362C133.391 19.9402 133.575 20.9402 133.943 21.8362C134.327 22.7322 134.871 23.4442 135.575 23.9722C136.295 24.5002 137.135 24.7642 138.095 24.7642ZM150.627 24.6922C150.659 24.6922 150.675 24.7402 150.675 24.8362C150.675 24.9322 150.659 24.9802 150.627 24.9802C150.179 24.9802 149.835 24.9722 149.595 24.9562L148.083 24.9322L146.667 24.9562C146.395 24.9722 146.027 24.9802 145.563 24.9802C145.531 24.9802 145.515 24.9322 145.515 24.8362C145.515 24.7402 145.531 24.6922 145.563 24.6922C146.091 24.6922 146.475 24.6522 146.715 24.5722C146.971 24.4922 147.147 24.3402 147.243 24.1162C147.339 23.8762 147.387 23.5162 147.387 23.0362V15.6922C147.387 15.2122 147.339 14.8602 147.243 14.6362C147.163 14.4122 146.995 14.2602 146.739 14.1802C146.499 14.0842 146.115 14.0362 145.587 14.0362C145.555 14.0362 145.539 13.9882 145.539 13.8922C145.539 13.7962 145.555 13.7482 145.587 13.7482L146.691 13.7722C147.267 13.8042 147.731 13.8202 148.083 13.8202C148.371 13.8202 148.635 13.8122 148.875 13.7962C149.131 13.7802 149.347 13.7642 149.523 13.7482C150.035 13.7002 150.507 13.6762 150.939 13.6762C151.979 13.6762 152.771 13.8762 153.315 14.2762C153.859 14.6762 154.131 15.2522 154.131 16.0042C154.131 16.6602 153.939 17.2682 153.555 17.8282C153.171 18.3882 152.643 18.8362 151.971 19.1722C151.299 19.4922 150.563 19.6522 149.763 19.6522C149.251 19.6522 148.811 19.6202 148.443 19.5562L148.419 19.0762C148.819 19.1882 149.323 19.2442 149.931 19.2442C150.923 19.2442 151.611 19.0282 151.995 18.5962C152.395 18.1482 152.595 17.5002 152.595 16.6522C152.595 14.8922 151.835 14.0122 150.315 14.0122C149.707 14.0122 149.307 14.1402 149.115 14.3962C148.939 14.6522 148.851 15.1002 148.851 15.7402V23.0362C148.851 23.5322 148.891 23.8922 148.971 24.1162C149.051 24.3402 149.211 24.4922 149.451 24.5722C149.691 24.6522 150.083 24.6922 150.627 24.6922ZM157.755 24.6922C157.787 24.6922 157.803 24.7402 157.803 24.8362C157.803 24.9322 157.787 24.9802 157.755 24.9802H154.947C154.659 24.9802 154.139 24.4842 153.387 23.4922C152.635 22.5002 151.739 21.1402 150.699 19.4122L151.971 18.9082C152.899 20.4282 153.675 21.5962 154.299 22.4122C154.923 23.2282 155.499 23.8122 156.027 24.1642C156.571 24.5162 157.147 24.6922 157.755 24.6922ZM166.625 12.7882C166.625 13.4122 166.777 13.9562 167.081 14.4202C167.385 14.8842 167.753 15.2762 168.185 15.5962C168.617 15.9002 169.225 16.2922 170.009 16.7722C170.841 17.2682 171.489 17.6842 171.953 18.0202C172.417 18.3562 172.809 18.7882 173.129 19.3162C173.465 19.8282 173.633 20.4442 173.633 21.1642C173.633 21.9322 173.441 22.6282 173.057 23.2522C172.673 23.8762 172.105 24.3722 171.353 24.7402C170.617 25.0922 169.729 25.2682 168.689 25.2682C167.457 25.2682 166.329 24.9882 165.305 24.4282C165.225 24.3802 165.169 24.3242 165.137 24.2602C165.121 24.1962 165.105 24.1002 165.089 23.9722L164.777 20.7082C164.761 20.6442 164.793 20.6042 164.873 20.5882C164.969 20.5722 165.025 20.5962 165.041 20.6602C165.281 21.7962 165.753 22.7882 166.457 23.6362C167.161 24.4682 168.089 24.8842 169.241 24.8842C170.041 24.8842 170.713 24.6682 171.257 24.2362C171.817 23.7882 172.097 23.0842 172.097 22.1242C172.097 21.4042 171.937 20.7802 171.617 20.2522C171.297 19.7242 170.905 19.2922 170.441 18.9562C169.993 18.6042 169.377 18.1962 168.593 17.7322C167.825 17.2682 167.217 16.8682 166.769 16.5322C166.337 16.1962 165.969 15.7722 165.665 15.2602C165.361 14.7482 165.209 14.1482 165.209 13.4602C165.209 12.6602 165.417 11.9802 165.833 11.4202C166.265 10.8442 166.817 10.4202 167.489 10.1482C168.177 9.86022 168.905 9.71622 169.673 9.71622C170.617 9.71622 171.553 9.90822 172.481 10.2922C172.721 10.3722 172.841 10.5082 172.841 10.7002L173.009 13.4362C173.009 13.5162 172.961 13.5562 172.865 13.5562C172.785 13.5562 172.737 13.5242 172.721 13.4602C172.609 12.6282 172.273 11.8602 171.713 11.1562C171.153 10.4362 170.345 10.0762 169.289 10.0762C168.393 10.0762 167.721 10.3402 167.273 10.8682C166.841 11.3802 166.625 12.0202 166.625 12.7882ZM181.534 25.2682C180.414 25.2682 179.414 25.0042 178.534 24.4762C177.67 23.9482 176.998 23.2362 176.518 22.3402C176.038 21.4442 175.798 20.4762 175.798 19.4362C175.798 18.1882 176.118 17.1162 176.758 16.2202C177.414 15.3082 178.238 14.6202 179.23 14.1562C180.238 13.6922 181.262 13.4602 182.302 13.4602C183.422 13.4602 184.406 13.7402 185.254 14.3002C186.118 14.8442 186.774 15.5562 187.222 16.4362C187.686 17.3162 187.918 18.2362 187.918 19.1962C187.918 20.2682 187.63 21.2762 187.054 22.2202C186.478 23.1482 185.702 23.8922 184.726 24.4522C183.75 24.9962 182.686 25.2682 181.534 25.2682ZM182.158 24.7642C183.406 24.7642 184.398 24.3242 185.134 23.4442C185.886 22.5642 186.262 21.3482 186.262 19.7962C186.262 18.7242 186.07 17.7482 185.686 16.8682C185.318 15.9882 184.774 15.2842 184.054 14.7562C183.334 14.2282 182.478 13.9642 181.486 13.9642C180.206 13.9642 179.214 14.3962 178.51 15.2602C177.806 16.1082 177.454 17.3002 177.454 18.8362C177.454 19.9402 177.638 20.9402 178.006 21.8362C178.39 22.7322 178.934 23.4442 179.638 23.9722C180.358 24.5002 181.198 24.7642 182.158 24.7642ZM192.865 22.9402C192.865 23.4042 192.905 23.7482 192.985 23.9722C193.081 24.1962 193.249 24.3562 193.489 24.4522C193.745 24.5482 194.121 24.5962 194.617 24.5962H196.225C197.057 24.5962 197.721 24.3322 198.217 23.8042C198.729 23.2762 199.073 22.5482 199.249 21.6202C199.249 21.5882 199.281 21.5722 199.345 21.5722C199.393 21.5722 199.433 21.5802 199.465 21.5962C199.513 21.6122 199.537 21.6362 199.537 21.6682C199.425 22.4042 199.369 23.3882 199.369 24.6202C199.369 24.7482 199.337 24.8442 199.273 24.9082C199.225 24.9562 199.137 24.9802 199.009 24.9802H189.625C189.593 24.9802 189.577 24.9322 189.577 24.8362C189.577 24.7402 189.593 24.6922 189.625 24.6922C190.153 24.6922 190.537 24.6522 190.777 24.5722C191.017 24.4922 191.177 24.3402 191.257 24.1162C191.337 23.8762 191.377 23.5162 191.377 23.0362V15.6922C191.377 15.2122 191.329 14.8602 191.233 14.6362C191.153 14.4122 190.993 14.2602 190.753 14.1802C190.513 14.0842 190.137 14.0362 189.625 14.0362C189.593 14.0362 189.577 13.9882 189.577 13.8922C189.577 13.7962 189.593 13.7482 189.625 13.7482L190.705 13.7722C191.313 13.8042 191.785 13.8202 192.121 13.8202C192.521 13.8202 193.025 13.8042 193.633 13.7722L194.641 13.7482C194.689 13.7482 194.713 13.7962 194.713 13.8922C194.713 13.9882 194.689 14.0362 194.641 14.0362C194.113 14.0362 193.729 14.0842 193.489 14.1802C193.249 14.2602 193.081 14.4202 192.985 14.6602C192.905 14.8842 192.865 15.2362 192.865 15.7162V22.9402Z" fill="white"/>
<defs>
<linearGradient id="paint0_linear_134_539" x1="30" y1="0.480225" x2="30" y2="34.4802" gradientUnits="userSpaceOnUse">
<stop stop-color="white"/>
<stop offset="1" stop-color="#CFA382"/>
</linearGradient>
</defs>
</svg>
